<svg width="21" height="21" viewBox="0 0 21 21" fill="none" xmlns="http://www.w3.org/2000/svg">
<g clip-path="url(#clip0_83_789)">
<path d="M6.51691 2.09197L5.73862 2.32644C5.04562 2.53542 4.42674 2.93803 3.95482 3.48687C3.48291 4.0357 3.17759 4.70793 3.07482 5.42442C2.75243 7.66922 3.4732 10.2939 5.21107 13.304C6.9446 16.3065 8.85289 18.2408 10.9533 19.0875C11.6282 19.3595 12.367 19.432 13.0819 19.2963C13.7967 19.1606 14.4576 18.8225 14.9859 18.3222L15.5742 17.7643C15.9563 17.4027 16.1941 16.9147 16.2434 16.391C16.2927 15.8674 16.1502 15.3436 15.8424 14.917L14.3704 12.8763C14.1714 12.6008 13.8912 12.3945 13.569 12.2863C13.2469 12.178 12.8989 12.1733 12.5739 12.2728L10.3476 12.9534L10.2901 12.9642C10.0448 13.0001 9.47813 12.4693 8.77256 11.247C8.03443 9.96829 7.88246 9.22038 8.08545 9.02717L9.21761 7.97098C9.63122 7.58478 9.91374 7.07893 10.0257 6.52422C10.1376 5.96952 10.0733 5.3937 9.84177 4.87734L9.12317 3.28058C8.90709 2.80008 8.52365 2.41455 8.04434 2.19586C7.56502 1.97718 7.02144 1.94025 6.51691 2.09197ZM8.13538 3.72563L8.8518 5.32239C8.99084 5.6321 9.02959 5.97752 8.96263 6.31034C8.89568 6.64316 8.72637 6.94672 8.47839 7.17858L7.34297 8.23584C6.61569 8.92405 6.85667 10.0985 7.83361 11.7897C8.75194 13.3811 9.58994 14.167 10.4909 14.0302L10.6255 14.002L12.892 13.3105C13.0003 13.2772 13.1164 13.2787 13.2238 13.3147C13.3313 13.3507 13.4248 13.4195 13.4912 13.5113L14.9631 15.552C15.1172 15.7653 15.1887 16.0273 15.1641 16.2892C15.1396 16.5512 15.0207 16.7953 14.8296 16.9762L14.2402 17.5342C13.8628 17.8913 13.3908 18.1326 12.8803 18.2294C12.3698 18.3262 11.8423 18.2744 11.3604 18.0802C9.51721 17.3377 7.775 15.5716 6.15219 12.7613C4.52504 9.94441 3.86615 7.54873 4.14946 5.57856C4.2228 5.06668 4.44086 4.58641 4.77798 4.19429C5.1151 3.80217 5.55723 3.51454 6.05232 3.36525L6.83062 3.13078C7.08295 3.05496 7.35425 3.0735 7.59391 3.18295C7.83358 3.2924 8.02526 3.48528 8.13321 3.72563" fill="black"/>
</g>
<defs>
<clipPath id="clip0_83_789">
<rect width="21" height="21" fill="white"/>
</clipPath>
</defs>
</svg>
