<svg width="72" height="71" viewBox="0 0 72 71" fill="none" xmlns="http://www.w3.org/2000/svg">
<path d="M18 19L6.5 23.5L12 30M12 30L20 26.5M12 30L6.5 36.5L10 37.8404M12 30L35.5 38.5M35.5 38.5L30 45.5L10 37.8404M35.5 38.5V64M35.5 38.5L40.5 45.5L60.5 37.8404M35.5 38.5L58.5 30M35.5 64L10 54V37.8404M35.5 64L60.5 54V37.8404M58.5 30L64 36.5L60.5 37.8404M58.5 30L50.5 26.5M58.5 30L64 23.5L52.5 19" stroke="white" stroke-width="1.5" stroke-linecap="round" stroke-linejoin="round"/>
<path d="M47.7289 15.932C47.2262 15.4074 46.7067 14.866 46.4979 14.362C46.3045 13.894 46.2942 13.2018 46.2826 12.4696C46.2646 11.2605 46.2439 9.89148 45.3261 8.97367C44.4083 8.05586 43.0342 8.03523 41.8302 8.01719C41.098 8.00559 40.4122 7.99527 39.9379 7.80191C39.4338 7.59309 38.8924 7.07359 38.3678 6.57086C37.5118 5.75102 36.5425 4.82031 35.2998 4.82031C34.0571 4.82031 33.0878 5.75102 32.2318 6.57086C31.7072 7.07359 31.1658 7.59309 30.6618 7.80191C30.1938 7.99527 29.5016 8.00559 28.7694 8.01719C27.5603 8.03523 26.1913 8.05586 25.2735 8.97367C24.3557 9.89148 24.335 11.2656 24.317 12.4696C24.3054 13.2018 24.2951 13.8876 24.1017 14.362C23.8929 14.866 23.3734 15.4074 22.8707 15.932C22.0508 16.788 21.1201 17.7573 21.1201 19C21.1201 20.2427 22.0508 21.212 22.8707 22.068C23.3734 22.5926 23.8929 23.134 24.1017 23.638C24.2951 24.106 24.3054 24.7982 24.317 25.5304C24.335 26.7395 24.3557 28.1085 25.2735 29.0263C26.1913 29.9441 27.5654 29.9648 28.7694 29.9828C29.5016 29.9944 30.1874 30.0047 30.6618 30.1981C31.1658 30.4069 31.7072 30.9264 32.2318 31.4291C33.0878 32.249 34.0571 33.1797 35.2998 33.1797C36.5425 33.1797 37.5118 32.249 38.3678 31.4291C38.8924 30.9264 39.4338 30.4069 39.9379 30.1981C40.4058 30.0047 41.098 29.9944 41.8302 29.9828C43.0393 29.9648 44.4083 29.9441 45.3261 29.0263C46.2439 28.1085 46.2646 26.7395 46.2826 25.5304C46.2942 24.7982 46.3045 24.1124 46.4979 23.638C46.7067 23.134 47.2262 22.5926 47.7289 22.068C48.5488 21.212 49.4795 20.2427 49.4795 19C49.4795 17.7573 48.5488 16.788 47.7289 15.932ZM46.6126 20.998C46.0106 21.6245 45.388 22.2742 45.0657 23.0477C44.7589 23.7876 44.7461 24.6616 44.7332 25.5072C44.719 26.4662 44.7035 27.4588 44.2304 27.9332C43.7573 28.4076 42.7635 28.4218 41.8044 28.4359C40.9588 28.4488 40.0848 28.4617 39.3449 28.7685C38.5714 29.0882 37.9269 29.7108 37.294 30.3154C36.6172 30.9599 35.9173 31.6354 35.2972 31.6354C34.6772 31.6354 33.9772 30.9638 33.2992 30.3154C32.6727 29.7134 32.023 29.0908 31.2496 28.7685C30.5096 28.4617 29.6357 28.4488 28.79 28.4359C27.831 28.4218 26.8384 28.4063 26.364 27.9332C25.8896 27.4601 25.8755 26.4662 25.8613 25.5072C25.8484 24.6616 25.8355 23.7876 25.5287 23.0477C25.209 22.2742 24.5864 21.6297 23.9818 20.9968C23.3386 20.32 22.667 19.62 22.667 19C22.667 18.38 23.3386 17.68 23.987 17.002C24.589 16.3755 25.2116 15.7258 25.5339 14.9523C25.8407 14.2124 25.8536 13.3384 25.8664 12.4928C25.8806 11.5337 25.8961 10.5412 26.3692 10.0668C26.8423 9.59242 27.8361 9.57824 28.7952 9.56406C29.6408 9.55117 30.5148 9.53828 31.2547 9.23148C32.0282 8.9118 32.6727 8.28918 33.3056 7.68461C33.9798 7.03879 34.6798 6.36719 35.2998 6.36719C35.9198 6.36719 36.6198 7.03879 37.2979 7.68719C37.9243 8.28918 38.574 8.9118 39.3475 9.23406C40.0874 9.54086 40.9614 9.55375 41.807 9.56664C42.7661 9.58082 43.7586 9.59629 44.233 10.0694C44.7074 10.5425 44.7216 11.5363 44.7357 12.4954C44.7486 13.341 44.7615 14.215 45.0683 14.9549C45.388 15.7284 46.0106 16.3729 46.6152 17.0058C47.2597 17.6826 47.9352 18.3825 47.9352 19.0026C47.9352 19.6226 47.261 20.32 46.6126 20.998ZM41.0026 15.3597C41.1475 15.5047 41.2288 15.7013 41.2288 15.9062C41.2288 16.1112 41.1475 16.3078 41.0026 16.4528L33.7839 23.6716C33.6388 23.8164 33.4423 23.8978 33.2373 23.8978C33.0323 23.8978 32.8358 23.8164 32.6907 23.6716L29.597 20.5778C29.4604 20.4312 29.386 20.2373 29.3895 20.0369C29.3931 19.8365 29.4742 19.6453 29.6159 19.5036C29.7577 19.3619 29.9488 19.2808 30.1492 19.2772C30.3496 19.2737 30.5435 19.3481 30.6901 19.4847L33.2373 22.0306L39.9095 15.3597C40.0545 15.2148 40.2511 15.1335 40.4561 15.1335C40.661 15.1335 40.8576 15.2148 41.0026 15.3597Z" fill="white"/>
</svg>
