<svg width="12" height="12" viewBox="0 0 12 12" fill="none" xmlns="http://www.w3.org/2000/svg">
<path d="M5.63633 1.8435C5.59122 1.79577 5.55595 1.73961 5.53255 1.67825C5.50914 1.61689 5.49805 1.55151 5.4999 1.48586C5.50176 1.42021 5.51653 1.35557 5.54337 1.29562C5.57021 1.23568 5.60859 1.18161 5.65633 1.1365C5.70406 1.09139 5.76022 1.05613 5.82158 1.03272C5.88295 1.00931 5.94832 0.998221 6.01397 1.00008C6.07962 1.00194 6.14426 1.01671 6.20421 1.04354C6.26415 1.07038 6.31822 1.10877 6.36333 1.1565L10.6133 5.6565C10.7011 5.74934 10.75 5.87225 10.75 6C10.75 6.12776 10.7011 6.25067 10.6133 6.3435L6.36333 10.844C6.31852 10.8928 6.26446 10.9322 6.2043 10.9599C6.14413 10.9876 6.07906 11.0031 6.01287 11.0054C5.94667 11.0078 5.88066 10.997 5.81869 10.9736C5.75671 10.9502 5.69999 10.9148 5.65183 10.8693C5.60367 10.8238 5.56503 10.7692 5.53814 10.7087C5.51126 10.6481 5.49667 10.5829 5.49523 10.5166C5.49379 10.4504 5.50552 10.3846 5.52974 10.3229C5.55396 10.2613 5.59019 10.205 5.63633 10.1575L9.56233 6L5.63633 1.8435Z" fill="white"/>
</svg>
