<svg width="21" height="21" viewBox="0 0 21 21" fill="none" xmlns="http://www.w3.org/2000/svg">
<path d="M5.28571 4.71429C5.28571 4.25963 5.46633 3.82359 5.78782 3.5021C6.10931 3.18061 6.54534 3 7 3H15C15.4547 3 15.8907 3.18061 16.2122 3.5021C16.5337 3.82359 16.7143 4.25963 16.7143 4.71429V7.57143H15.5714V4.71429C15.5714 4.56273 15.5112 4.41739 15.4041 4.31022C15.2969 4.20306 15.1516 4.14286 15 4.14286H7C6.84845 4.14286 6.7031 4.20306 6.59594 4.31022C6.48878 4.41739 6.42857 4.56273 6.42857 4.71429V8.71429H12.7143C12.4604 9.05248 12.2847 9.44282 12.2 9.85714H5.28571C4.98261 9.85714 4.69192 9.97755 4.47759 10.1919C4.26327 10.4062 4.14286 10.6969 4.14286 11V17.2857C4.14286 17.4373 4.20306 17.5826 4.31022 17.6898C4.41739 17.7969 4.56273 17.8571 4.71429 17.8571H12.2C12.2857 18.28 12.464 18.6686 12.7143 19H4.71429C4.25963 19 3.82359 18.8194 3.5021 18.4979C3.18061 18.1764 3 17.7404 3 17.2857V11C3 10.3938 3.24082 9.81241 3.66947 9.38376C4.09812 8.9551 4.67951 8.71429 5.28571 8.71429V4.71429ZM13.2857 10.4286C13.2857 9.97392 13.4663 9.53788 13.7878 9.21639C14.1093 8.8949 14.5453 8.71429 15 8.71429H17.2857C17.7404 8.71429 18.1764 8.8949 18.4979 9.21639C18.8194 9.53788 19 9.97392 19 10.4286V17.2857C19 17.7404 18.8194 18.1764 18.4979 18.4979C18.1764 18.8194 17.7404 19 17.2857 19H15C14.5453 19 14.1093 18.8194 13.7878 18.4979C13.4663 18.1764 13.2857 17.7404 13.2857 17.2857V10.4286ZM15 9.85714C14.8484 9.85714 14.7031 9.91735 14.5959 10.0245C14.4888 10.1317 14.4286 10.277 14.4286 10.4286V17.2857C14.4286 17.4373 14.4888 17.5826 14.5959 17.6898C14.7031 17.7969 14.8484 17.8571 15 17.8571H17.2857C17.4373 17.8571 17.5826 17.7969 17.6898 17.6898C17.7969 17.5826 17.8571 17.4373 17.8571 17.2857V10.4286C17.8571 10.277 17.7969 10.1317 17.6898 10.0245C17.5826 9.91735 17.4373 9.85714 17.2857 9.85714H15ZM6 11C6.18944 11 6.37112 11.0753 6.50508 11.2092C6.63903 11.3432 6.71429 11.5248 6.71429 11.7143C6.71429 11.9037 6.63903 12.0854 6.50508 12.2194C6.37112 12.3533 6.18944 12.4286 6 12.4286C5.81056 12.4286 5.62888 12.3533 5.49492 12.2194C5.36097 12.0854 5.28571 11.9037 5.28571 11.7143C5.28571 11.5248 5.36097 11.3432 5.49492 11.2092C5.62888 11.0753 5.81056 11 6 11ZM6 13.5714C6.18944 13.5714 6.37112 13.6467 6.50508 13.7806C6.63903 13.9146 6.71429 14.0963 6.71429 14.2857C6.71429 14.4752 6.63903 14.6568 6.50508 14.7908C6.37112 14.9247 6.18944 15 6 15C5.81056 15 5.62888 14.9247 5.49492 14.7908C5.36097 14.6568 5.28571 14.4752 5.28571 14.2857C5.28571 14.0963 5.36097 13.9146 5.49492 13.7806C5.62888 13.6467 5.81056 13.5714 6 13.5714ZM9.28571 14.4286C9.28571 14.2391 9.21046 14.0574 9.07651 13.9235C8.94255 13.7895 8.76087 13.7143 8.57143 13.7143C8.38199 13.7143 8.20031 13.7895 8.06635 13.9235C7.9324 14.0574 7.85714 14.2391 7.85714 14.4286C7.85714 14.618 7.9324 14.7997 8.06635 14.9336C8.20031 15.0676 8.38199 15.1429 8.57143 15.1429C8.76087 15.1429 8.94255 15.0676 9.07651 14.9336C9.21046 14.7997 9.28571 14.618 9.28571 14.4286ZM8.57143 11C8.76087 11 8.94255 11.0753 9.07651 11.2092C9.21046 11.3432 9.28571 11.5248 9.28571 11.7143C9.28571 11.9037 9.21046 12.0854 9.07651 12.2194C8.94255 12.3533 8.76087 12.4286 8.57143 12.4286C8.38199 12.4286 8.20031 12.3533 8.06635 12.2194C7.9324 12.0854 7.85714 11.9037 7.85714 11.7143C7.85714 11.5248 7.9324 11.3432 8.06635 11.2092C8.20031 11.0753 8.38199 11 8.57143 11Z" fill="black"/>
</svg>
