<svg width="21" height="21" viewBox="0 0 21 21" fill="none" xmlns="http://www.w3.org/2000/svg">
<g clip-path="url(#clip0_83_777)">
<path d="M10.5 5.41406C9.88348 5.41406 9.2808 5.59688 8.76818 5.9394C8.25556 6.28192 7.85603 6.76876 7.62009 7.33835C7.38416 7.90795 7.32243 8.53471 7.44271 9.13938C7.56299 9.74406 7.85987 10.2995 8.29582 10.7354C8.73176 11.1714 9.28719 11.4683 9.89187 11.5885C10.4965 11.7088 11.1233 11.6471 11.6929 11.4112C12.2625 11.1752 12.7493 10.7757 13.0918 10.2631C13.4344 9.75045 13.6172 9.14777 13.6172 8.53125C13.6172 7.70452 13.2888 6.91165 12.7042 6.32707C12.1196 5.74248 11.3267 5.41406 10.5 5.41406ZM10.5 10.6641C10.0782 10.6641 9.66581 10.539 9.31507 10.3046C8.96433 10.0703 8.69097 9.73716 8.52954 9.34744C8.36811 8.95772 8.32587 8.52888 8.40817 8.11516C8.49046 7.70143 8.69359 7.3214 8.99187 7.02312C9.29015 6.72484 9.67018 6.52171 10.0839 6.43942C10.4976 6.35712 10.9265 6.39936 11.3162 6.56079C11.7059 6.72222 12.039 6.99558 12.2734 7.34632C12.5077 7.69706 12.6328 8.10942 12.6328 8.53125C12.6328 9.09691 12.4081 9.6394 12.0081 10.0394C11.6081 10.4394 11.0657 10.6641 10.5 10.6641ZM10.5 1.47656C8.62965 1.47873 6.83652 2.22269 5.51398 3.54523C4.19144 4.86777 3.44748 6.6609 3.44531 8.53125C3.44531 11.0668 4.62164 13.7599 6.84715 16.3193C7.85162 17.4801 8.98213 18.5256 10.2178 19.4365C10.3005 19.4944 10.399 19.5254 10.5 19.5254C10.601 19.5254 10.6995 19.4944 10.7822 19.4365C12.0179 18.5256 13.1484 17.4801 14.1529 16.3193C16.3784 13.7599 17.5547 11.0693 17.5547 8.53125C17.5525 6.6609 16.8086 4.86777 15.486 3.54523C14.1635 2.22269 12.3704 1.47873 10.5 1.47656ZM10.5 18.4168C9.26953 17.4669 4.42969 13.422 4.42969 8.53125C4.42969 6.9213 5.06924 5.3773 6.20764 4.23889C7.34605 3.10049 8.89005 2.46094 10.5 2.46094C12.1099 2.46094 13.654 3.10049 14.7924 4.23889C15.9308 5.3773 16.5703 6.9213 16.5703 8.53125C16.5703 13.422 11.7305 17.4669 10.5 18.4168Z" fill="black"/>
</g>
<defs>
<clipPath id="clip0_83_777">
<rect width="21" height="21" fill="white"/>
</clipPath>
</defs>
</svg>
