<svg width="12" height="12" viewBox="0 0 12 12" fill="none" xmlns="http://www.w3.org/2000/svg">
<g clip-path="url(#clip0_287_101)">
<path d="M1.29732 0.5H3.89196C4.16616 0.5 4.3916 0.57435 4.53368 0.668221C4.67967 0.764681 4.68928 0.841752 4.68928 0.857143V11.1429C4.68928 11.1582 4.67967 11.2353 4.53368 11.3318C4.3916 11.4257 4.16616 11.5 3.89196 11.5H1.29732C1.02312 11.5 0.79768 11.4257 0.655601 11.3318C0.509606 11.2353 0.5 11.1582 0.5 11.1429V0.857143C0.5 0.841752 0.509606 0.764681 0.655602 0.668221C0.79768 0.57435 1.02312 0.5 1.29732 0.5Z" stroke="white" stroke-linecap="round"/>
<path d="M8.10787 0.5H10.7025C10.9767 0.5 11.2021 0.57435 11.3442 0.668221C11.4902 0.764681 11.4998 0.841752 11.4998 0.857143V11.1429C11.4998 11.1582 11.4902 11.2353 11.3442 11.3318C11.2021 11.4257 10.9767 11.5 10.7025 11.5H8.10787C7.83367 11.5 7.60823 11.4257 7.46615 11.3318C7.32015 11.2353 7.31055 11.1582 7.31055 11.1429V0.857143C7.31055 0.841752 7.32015 0.764681 7.46615 0.668221C7.60823 0.57435 7.83367 0.5 8.10787 0.5Z" stroke="white" stroke-linecap="round"/>
</g>
<defs>
<clipPath id="clip0_287_101">
<rect width="12" height="12" fill="white"/>
</clipPath>
</defs>
</svg>
