<svg width="72" height="71" viewBox="0 0 72 71" fill="none" xmlns="http://www.w3.org/2000/svg">
<path d="M37.0003 42.8958C41.0849 42.8958 44.3962 39.5846 44.3962 35.5C44.3962 31.4154 41.0849 28.1041 37.0003 28.1041C32.9157 28.1041 29.6045 31.4154 29.6045 35.5C29.6045 39.5846 32.9157 42.8958 37.0003 42.8958Z" stroke="white" stroke-width="1.5"/>
<path d="M31 40.5L19.7292 51.7708M31.5625 31.0625L18.25 17.75" stroke="white" stroke-width="1.5" stroke-linejoin="round"/>
<path d="M50.792 54.7291C53.2428 54.7291 55.2295 52.7424 55.2295 50.2916C55.2295 47.8409 53.2428 45.8541 50.792 45.8541C48.3412 45.8541 46.3545 47.8409 46.3545 50.2916C46.3545 52.7424 48.3412 54.7291 50.792 54.7291Z" stroke="white" stroke-width="1.5"/>
<path d="M59.667 39.9375C62.1178 39.9375 64.1045 37.9508 64.1045 35.5C64.1045 33.0492 62.1178 31.0625 59.667 31.0625C57.2162 31.0625 55.2295 33.0492 55.2295 35.5C55.2295 37.9508 57.2162 39.9375 59.667 39.9375Z" stroke="white" stroke-width="1.5"/>
<path d="M55.5 35H43.9444M42.5 41L48.2778 47" stroke="white" stroke-width="1.5" stroke-linejoin="round"/>
<path d="M56.7083 22.1875C60.7929 22.1875 64.1042 18.8763 64.1042 14.7916C64.1042 10.707 60.7929 7.39581 56.7083 7.39581C52.6237 7.39581 49.3125 10.707 49.3125 14.7916C49.3125 18.8763 52.6237 22.1875 56.7083 22.1875Z" stroke="white" stroke-width="1.5"/>
<path d="M51.5 20L42.5 30" stroke="white" stroke-width="1.5" stroke-linejoin="round"/>
<path d="M15.292 19.2291C17.7428 19.2291 19.7295 17.2424 19.7295 14.7916C19.7295 12.3409 17.7428 10.3541 15.292 10.3541C12.8412 10.3541 10.8545 12.3409 10.8545 14.7916C10.8545 17.2424 12.8412 19.2291 15.292 19.2291Z" stroke="white" stroke-width="1.5"/>
<path d="M15.2918 64.6042C19.3764 64.6042 22.6877 61.2929 22.6877 57.2083C22.6877 53.1237 19.3764 49.8125 15.2918 49.8125C11.2072 49.8125 7.896 53.1237 7.896 57.2083C7.896 61.2929 11.2072 64.6042 15.2918 64.6042Z" stroke="white" stroke-width="1.5"/>
</svg>
