<svg width="293" height="88" viewBox="0 0 293 88" fill="none" xmlns="http://www.w3.org/2000/svg">
<rect x="0.75" y="0.75" width="291.5" height="86.5" rx="9.25" fill="white"/>
<rect x="0.75" y="0.75" width="291.5" height="86.5" rx="9.25" stroke="black" stroke-width="1.5"/>
<path d="M70.5453 42.1789C70.5697 40.292 71.0723 38.4419 72.0064 36.8008C72.9404 35.1597 74.2756 33.7808 75.8876 32.7926C74.8635 31.3341 73.5125 30.1338 71.9419 29.2871C70.3713 28.4404 68.6243 27.9705 66.8397 27.9148C63.0329 27.5163 59.3424 30.1864 57.4024 30.1864C55.425 30.1864 52.4383 27.9544 49.222 28.0204C47.1416 28.0874 45.1142 28.6906 43.3371 29.7714C41.5601 30.8521 40.0941 32.3734 39.0819 34.1871C34.6977 41.7567 37.9679 52.8814 42.1678 59.0001C44.269 61.9963 46.7248 65.343 49.9382 65.2244C53.0826 65.0943 54.257 63.2249 58.0526 63.2249C61.813 63.2249 62.9148 65.2244 66.1934 65.1489C69.5675 65.0943 71.6934 62.1395 73.721 59.1149C75.2307 56.9801 76.3925 54.6206 77.1632 52.1239C75.2029 51.2971 73.5301 49.9132 72.3532 48.1447C71.1764 46.3762 70.5476 44.3013 70.5453 42.1789Z" fill="black"/>
<path d="M64.3526 23.8912C66.1923 21.6889 67.0987 18.8581 66.8792 16.0001C64.0685 16.2945 61.4722 17.6341 59.6076 19.7519C58.696 20.7865 57.9978 21.9902 57.5529 23.294C57.108 24.5979 56.9252 25.9764 57.0149 27.3508C58.4207 27.3652 59.8115 27.0614 61.0825 26.4621C62.3535 25.8629 63.4716 24.9838 64.3526 23.8912Z" fill="black"/>
<path d="M108.271 57.9402H97.9518L95.4737 65.2369H91.103L100.877 38.2412H105.418L115.192 65.2369H110.747L108.271 57.9402ZM99.0205 54.5732H107.2L103.168 42.7313H103.055L99.0205 54.5732Z" fill="black"/>
<path d="M136.3 55.3973C136.3 61.5136 133.017 65.4432 128.063 65.4432C126.808 65.5086 125.56 65.2204 124.462 64.6114C123.364 64.0024 122.459 63.0973 121.853 61.9997H121.759V71.7483H117.708V45.5553H121.629V48.8289H121.704C122.338 47.7366 123.258 46.8361 124.364 46.2234C125.471 45.6107 126.723 45.3086 127.989 45.3493C132.998 45.3494 136.3 49.298 136.3 55.3973ZM132.136 55.3973C132.136 51.4125 130.071 48.7928 126.92 48.7928C123.824 48.7928 121.742 51.4677 121.742 55.3973C121.742 59.363 123.824 62.0189 126.92 62.0189C130.071 62.0189 132.136 59.4182 132.136 55.3973H132.136Z" fill="black"/>
<path d="M158.025 55.3973C158.025 61.5136 154.741 65.4432 149.787 65.4432C148.532 65.5086 147.284 65.2204 146.186 64.6114C145.087 64.0024 144.183 63.0973 143.577 61.9997H143.483V71.7483H139.432V45.5553H143.353V48.8289H143.428C144.062 47.7366 144.981 46.8361 146.088 46.2234C147.195 45.6107 148.447 45.3086 149.712 45.3493C154.722 45.3494 158.025 49.298 158.025 55.3973ZM153.859 55.3973C153.859 51.4125 151.794 48.7928 148.644 48.7928C145.548 48.7928 143.466 51.4677 143.466 55.3973C143.466 59.363 145.548 62.0189 148.644 62.0189C151.794 62.0189 153.859 59.4182 153.859 55.3973Z" fill="black"/>
<path d="M172.38 57.7156C172.68 60.3927 175.288 62.1504 178.852 62.1504C182.266 62.1504 184.723 60.3926 184.723 57.9788C184.723 55.8834 183.241 54.6288 179.733 53.7689L176.225 52.9261C171.253 51.7288 168.946 49.4105 168.946 45.6486C168.946 40.9908 173.016 37.7915 178.794 37.7915C184.517 37.7915 188.438 40.9908 188.57 45.6486H184.48C184.236 42.9545 182.002 41.3284 178.739 41.3284C175.475 41.3284 173.242 42.9737 173.242 45.3684C173.242 47.2769 174.668 48.4 178.158 49.2597L181.14 49.99C186.694 51.2998 189 53.5248 189 57.4734C189 62.5239 184.968 65.6871 178.551 65.6871C172.548 65.6871 168.494 62.5982 168.232 57.7154L172.38 57.7156Z" fill="black"/>
<path d="M197.748 40.8972V45.555H201.502V48.7543H197.748V59.6048C197.748 61.2904 198.5 62.0759 200.15 62.0759C200.595 62.0681 201.04 62.0369 201.483 61.9824V65.1626C200.741 65.3008 199.987 65.3634 199.232 65.3494C195.236 65.3494 193.678 63.8527 193.678 60.0356V48.7543H190.808V45.555H193.678V40.8972H197.748Z" fill="black"/>
<path d="M203.673 55.3975C203.673 49.2049 207.33 45.3135 213.034 45.3135C218.756 45.3135 222.397 49.2048 222.397 55.3975C222.397 61.6072 218.775 65.4816 213.034 65.4816C207.294 65.4816 203.673 61.6072 203.673 55.3975ZM218.269 55.3975C218.269 51.1495 216.316 48.6423 213.034 48.6423C209.751 48.6423 207.799 51.1686 207.799 55.3975C207.799 59.6626 209.751 62.1507 213.034 62.1507C216.316 62.1507 218.269 59.6626 218.269 55.3975H218.269Z" fill="black"/>
<path d="M225.737 45.5551H229.601V48.9051H229.695C229.956 47.8588 230.571 46.9342 231.436 46.2866C232.3 45.639 233.362 45.308 234.443 45.3491C234.909 45.3475 235.375 45.3981 235.831 45.4999V49.2787C235.241 49.0991 234.626 49.0167 234.01 49.0346C233.422 49.0108 232.835 49.1143 232.29 49.3379C231.746 49.5616 231.256 49.9002 230.855 50.3304C230.454 50.7606 230.151 51.2722 229.967 51.8302C229.783 52.3882 229.722 52.9792 229.789 53.5629V65.237H225.737L225.737 45.5551Z" fill="black"/>
<path d="M254.509 59.4567C253.964 63.0296 250.475 65.4816 246.011 65.4816C240.269 65.4816 236.705 61.6454 236.705 55.491C236.705 49.3174 240.288 45.3135 245.84 45.3135C251.301 45.3135 254.735 49.0541 254.735 55.0218V56.406H240.795V56.6501C240.73 57.3744 240.821 58.1041 241.062 58.7908C241.302 59.4774 241.686 60.1052 242.188 60.6324C242.69 61.1597 243.299 61.5744 243.974 61.849C244.649 62.1236 245.376 62.2517 246.104 62.225C247.062 62.3144 248.022 62.0933 248.844 61.5945C249.665 61.0958 250.303 60.3459 250.662 59.4566L254.509 59.4567ZM240.814 53.5824H250.681C250.718 52.9311 250.619 52.2794 250.391 51.668C250.162 51.0567 249.81 50.499 249.355 50.03C248.901 49.5609 248.354 49.1906 247.749 48.9423C247.144 48.694 246.494 48.5731 245.84 48.5871C245.181 48.5832 244.527 48.7096 243.916 48.959C243.306 49.2084 242.751 49.576 242.283 50.0404C241.816 50.5048 241.446 51.0569 241.193 51.6649C240.941 52.2728 240.812 52.9245 240.814 53.5824V53.5824Z" fill="black"/>
<path d="M98.514 17.9227C99.3633 17.8619 100.216 17.9899 101.009 18.2973C101.803 18.6048 102.519 19.0841 103.104 19.7007C103.69 20.3172 104.131 21.0557 104.395 21.8628C104.66 22.6699 104.742 23.5256 104.635 24.368C104.635 28.512 102.389 30.8941 98.514 30.8941H93.8154V17.9227H98.514ZM95.8358 29.0596H98.2883C98.8952 29.0958 99.5026 28.9966 100.066 28.7692C100.63 28.5417 101.136 28.1918 101.546 27.745C101.957 27.2981 102.263 26.7655 102.442 26.1858C102.62 25.6062 102.667 24.9942 102.578 24.3944C102.66 23.797 102.609 23.1888 102.428 22.6134C102.247 22.038 101.94 21.5098 101.53 21.0664C101.12 20.6231 100.617 20.2757 100.056 20.0491C99.4959 19.8225 98.8921 19.7223 98.2883 19.7557H95.8358V29.0596Z" fill="black"/>
<path d="M106.917 25.9945C106.855 25.3512 106.929 24.7021 107.134 24.0889C107.338 23.4757 107.669 22.912 108.105 22.4337C108.541 21.9555 109.072 21.5734 109.665 21.3119C110.257 21.0505 110.898 20.9154 111.546 20.9154C112.194 20.9154 112.835 21.0505 113.428 21.3119C114.021 21.5734 114.552 21.9555 114.988 22.4337C115.424 22.912 115.754 23.4757 115.959 24.0889C116.164 24.7021 116.237 25.3512 116.176 25.9945C116.238 26.6384 116.166 27.2884 115.962 27.9026C115.758 28.5168 115.427 29.0816 114.991 29.5608C114.555 30.0399 114.023 30.4228 113.43 30.6849C112.837 30.9469 112.195 31.0823 111.546 31.0823C110.897 31.0823 110.256 30.9469 109.663 30.6849C109.069 30.4228 108.538 30.0399 108.102 29.5608C107.666 29.0816 107.335 28.5168 107.131 27.9026C106.927 27.2884 106.854 26.6384 106.917 25.9945ZM114.183 25.9945C114.183 23.8726 113.227 22.6317 111.549 22.6317C109.865 22.6317 108.918 23.8726 108.918 25.9945C108.918 28.1334 109.866 29.3647 111.549 29.3647C113.227 29.3647 114.183 28.1249 114.183 25.9945H114.183Z" fill="black"/>
<path d="M128.483 30.8942H126.473L124.444 23.6846H124.291L122.271 30.8942H120.28L117.574 21.1052H119.539L121.298 28.5748H121.442L123.461 21.1052H125.319L127.337 28.5748H127.491L129.241 21.1052H131.178L128.483 30.8942Z" fill="black"/>
<path d="M133.454 21.105H135.319V22.66H135.463C135.709 22.1015 136.123 21.6333 136.648 21.3207C137.173 21.0081 137.783 20.8666 138.393 20.916C138.87 20.8802 139.35 20.952 139.796 21.1261C140.242 21.3003 140.643 21.5722 140.969 21.9219C141.296 22.2715 141.539 22.6899 141.681 23.1461C141.823 23.6022 141.861 24.0844 141.79 24.5569V30.8938H139.853V25.042C139.853 23.4689 139.168 22.6866 137.735 22.6866C137.411 22.6715 137.087 22.7266 136.786 22.8479C136.485 22.9693 136.214 23.1541 135.991 23.3897C135.769 23.6254 135.6 23.9062 135.496 24.213C135.392 24.5198 135.357 24.8453 135.391 25.1672V30.8939H133.454L133.454 21.105Z" fill="black"/>
<path d="M144.877 17.2834H146.815V30.8938H144.877V17.2834Z" fill="black"/>
<path d="M149.508 25.9947C149.447 25.3513 149.52 24.7022 149.725 24.089C149.93 23.4758 150.26 22.912 150.696 22.4338C151.132 21.9555 151.664 21.5734 152.256 21.3119C152.849 21.0505 153.49 20.9154 154.138 20.9154C154.786 20.9154 155.427 21.0505 156.02 21.3119C156.612 21.5734 157.144 21.9555 157.58 22.4338C158.016 22.912 158.346 23.4758 158.551 24.089C158.756 24.7022 158.83 25.3513 158.768 25.9947C158.831 26.6387 158.758 27.2886 158.554 27.9028C158.35 28.517 158.019 29.0818 157.583 29.5609C157.147 30.0401 156.615 30.423 156.022 30.685C155.429 30.947 154.787 31.0824 154.138 31.0824C153.489 31.0824 152.848 30.947 152.254 30.685C151.661 30.423 151.129 30.0401 150.693 29.5609C150.257 29.0818 149.927 28.517 149.722 27.9028C149.518 27.2886 149.445 26.6387 149.508 25.9947ZM156.774 25.9947C156.774 23.8728 155.818 22.6319 154.141 22.6319C152.457 22.6319 151.509 23.8728 151.509 25.9947C151.509 28.1336 152.457 29.3649 154.141 29.3649C155.818 29.3649 156.774 28.1251 156.774 25.9947H156.774Z" fill="black"/>
<path d="M160.807 28.125C160.807 26.3629 162.123 25.3471 164.458 25.2027L167.117 25.0499V24.2049C167.117 23.171 166.432 22.5872 165.108 22.5872C164.026 22.5872 163.277 22.9832 163.062 23.6753H161.186C161.384 21.9939 162.97 20.9154 165.197 20.9154C167.658 20.9154 169.046 22.1371 169.046 24.2049V30.8933H167.181V29.5176H167.028C166.717 30.0111 166.28 30.4134 165.762 30.6834C165.244 30.9534 164.663 31.0815 164.079 31.0546C163.667 31.0973 163.251 31.0535 162.857 30.9259C162.463 30.7983 162.1 30.5898 161.791 30.3137C161.483 30.0377 161.236 29.7003 161.067 29.3233C160.897 28.9464 160.809 28.5381 160.807 28.125ZM167.117 27.2885V26.4701L164.72 26.623C163.368 26.7132 162.755 27.1718 162.755 28.0347C162.755 28.9158 163.521 29.4284 164.575 29.4284C164.884 29.4596 165.196 29.4285 165.493 29.337C165.789 29.2455 166.064 29.0955 166.301 28.8958C166.538 28.6962 166.733 28.451 166.873 28.1749C167.013 27.8987 167.096 27.5973 167.117 27.2885Z" fill="black"/>
<path d="M171.592 25.9951C171.592 22.9019 173.187 20.9424 175.667 20.9424C176.281 20.9142 176.889 21.0607 177.422 21.3649C177.956 21.669 178.391 22.1181 178.677 22.6598H178.822V17.2834H180.759V30.8937H178.903V29.3472H178.75C178.441 29.8852 177.991 30.3287 177.447 30.6298C176.904 30.9308 176.288 31.0779 175.667 31.0551C173.17 31.0552 171.592 29.0956 171.592 25.9951ZM173.594 25.9951C173.594 28.0713 174.575 29.3207 176.216 29.3207C177.849 29.3207 178.858 28.0533 178.858 26.0036C178.858 23.9634 177.839 22.6779 176.216 22.6779C174.586 22.6779 173.593 23.9358 173.593 25.9951H173.594Z" fill="black"/>
<path d="M188.775 25.9945C188.713 25.3512 188.787 24.7021 188.991 24.0889C189.196 23.4757 189.527 22.912 189.963 22.4337C190.399 21.9555 190.93 21.5734 191.523 21.3119C192.115 21.0505 192.756 20.9154 193.404 20.9154C194.052 20.9154 194.693 21.0505 195.286 21.3119C195.878 21.5734 196.41 21.9555 196.846 22.4337C197.281 22.912 197.612 23.4757 197.817 24.0889C198.021 24.7021 198.095 25.3512 198.034 25.9945C198.096 26.6384 198.023 27.2884 197.819 27.9026C197.615 28.5168 197.285 29.0816 196.849 29.5608C196.413 30.0399 195.881 30.4228 195.288 30.6849C194.695 30.9469 194.053 31.0823 193.404 31.0823C192.755 31.0823 192.114 30.9469 191.52 30.6849C190.927 30.4228 190.396 30.0399 189.96 29.5608C189.524 29.0816 189.193 28.5168 188.989 27.9026C188.785 27.2884 188.712 26.6384 188.775 25.9945ZM196.041 25.9945C196.041 23.8726 195.085 22.6317 193.407 22.6317C191.723 22.6317 190.776 23.8726 190.776 25.9945C190.776 28.1334 191.723 29.3647 193.407 29.3647C195.085 29.3647 196.041 28.1249 196.041 25.9945Z" fill="black"/>
<path d="M200.633 21.105H202.498V22.66H202.643C202.889 22.1015 203.303 21.6333 203.828 21.3207C204.353 21.0081 204.963 20.8666 205.572 20.916C206.05 20.8802 206.53 20.952 206.976 21.1261C207.422 21.3003 207.823 21.5722 208.149 21.9219C208.475 22.2715 208.719 22.6899 208.861 23.1461C209.003 23.6022 209.04 24.0844 208.97 24.5569V30.8938H207.033V25.042C207.033 23.4689 206.347 22.6866 204.915 22.6866C204.59 22.6715 204.267 22.7266 203.966 22.8479C203.665 22.9693 203.394 23.1541 203.171 23.3897C202.948 23.6254 202.779 23.9062 202.676 24.213C202.572 24.5198 202.536 24.8453 202.571 25.1672V30.8939H200.633V21.105Z" fill="black"/>
<path d="M219.917 18.6671V21.1489H222.044V22.7761H219.917V27.8097C219.917 28.835 220.34 29.284 221.305 29.284C221.552 29.2833 221.798 29.2684 222.044 29.2395V30.8487C221.696 30.9107 221.343 30.9437 220.99 30.9474C218.835 30.9474 217.977 30.1916 217.977 28.3043V22.776H216.419V21.1488H217.977V18.6671H219.917Z" fill="black"/>
<path d="M224.69 17.2834H226.61V22.6779H226.763C227.021 22.1142 227.447 21.6433 227.982 21.3295C228.518 21.0157 229.137 20.8742 229.757 20.9243C230.232 20.8986 230.707 20.9777 231.148 21.156C231.589 21.3344 231.985 21.6076 232.308 21.9561C232.631 22.3047 232.872 22.72 233.016 23.1725C233.159 23.625 233.201 24.1034 233.137 24.5737V30.8938H231.198V25.0503C231.198 23.4867 230.468 22.6949 229.099 22.6949C228.766 22.6676 228.431 22.7133 228.118 22.8286C227.804 22.9439 227.52 23.1262 227.284 23.3626C227.049 23.5989 226.868 23.8838 226.755 24.1971C226.641 24.5105 226.598 24.8448 226.627 25.1766V30.8937H224.69L224.69 17.2834Z" fill="black"/>
<path d="M244.434 28.2504C244.17 29.145 243.6 29.9189 242.822 30.4366C242.045 30.9544 241.11 31.1829 240.18 31.0824C239.533 31.0994 238.891 30.9759 238.296 30.7204C237.702 30.4649 237.171 30.0836 236.74 29.6028C236.308 29.1221 235.987 28.5535 235.798 27.9365C235.609 27.3195 235.557 26.6689 235.645 26.0298C235.559 25.3887 235.612 24.7367 235.801 24.1179C235.989 23.499 236.309 22.9278 236.738 22.4428C237.167 21.9579 237.696 21.5706 238.288 21.3071C238.881 21.0436 239.523 20.9101 240.171 20.9156C242.903 20.9156 244.551 22.7764 244.551 25.8503V26.5245H237.619V26.6327C237.589 26.9919 237.634 27.3535 237.752 27.6943C237.87 28.0351 238.058 28.3475 238.304 28.6115C238.55 28.8755 238.849 29.0854 239.181 29.2275C239.513 29.3697 239.872 29.4411 240.233 29.4371C240.697 29.4925 241.166 29.4093 241.582 29.198C241.998 28.9867 242.341 28.6568 242.569 28.2503L244.434 28.2504ZM237.619 25.0957H242.577C242.602 24.7671 242.557 24.4371 242.446 24.1269C242.335 23.8166 242.16 23.533 241.932 23.2942C241.704 23.0553 241.429 22.8666 241.124 22.7402C240.819 22.6137 240.491 22.5523 240.161 22.5598C239.826 22.5556 239.493 22.6183 239.183 22.7443C238.872 22.8703 238.59 23.0569 238.354 23.2933C238.117 23.5296 237.93 23.8108 237.803 24.1204C237.677 24.4299 237.615 24.7616 237.619 25.0957H237.619Z" fill="black"/>
</svg>
