<svg width="293" height="88" viewBox="0 0 293 88" fill="none" xmlns="http://www.w3.org/2000/svg">
<g clip-path="url(#clip0_83_328)">
<path d="M282.148 0H10.8519C4.85854 0 0 4.92487 0 11V77C0 83.0751 4.85854 88 10.8519 88H282.148C288.141 88 293 83.0751 293 77V11C293 4.92487 288.141 0 282.148 0Z" fill="white"/>
<path d="M282.148 1.76C284.566 1.76 286.884 2.7335 288.594 4.46633C290.303 6.19917 291.264 8.5494 291.264 11V77C291.264 79.4506 290.303 81.8008 288.594 83.5337C286.884 85.2665 284.566 86.24 282.148 86.24H10.8519C8.43426 86.24 6.11568 85.2665 4.40618 83.5337C2.69668 81.8008 1.7363 79.4506 1.7363 77V11C1.7363 8.5494 2.69668 6.19917 4.40618 4.46633C6.11568 2.7335 8.43426 1.76 10.8519 1.76H282.148ZM282.148 0H10.8519C7.97376 0 5.21355 1.15893 3.17843 3.22183C1.14332 5.28473 0 8.08262 0 11V77C0 79.9174 1.14332 82.7153 3.17843 84.7782C5.21355 86.8411 7.97376 88 10.8519 88H282.148C285.026 88 287.786 86.8411 289.822 84.7782C291.857 82.7153 293 79.9174 293 77V11C293 8.08262 291.857 5.28473 289.822 3.22183C287.786 1.15893 285.026 0 282.148 0Z" fill="black"/>
<path d="M102.919 22.5285C102.955 23.3353 102.829 24.141 102.549 24.8972C102.269 25.6534 101.841 26.3443 101.291 26.9285C100.675 27.5737 99.9305 28.0797 99.1077 28.4133C98.2849 28.747 97.4018 28.9007 96.5163 28.8645C95.6257 28.8846 94.7405 28.7192 93.9155 28.3787C93.0905 28.0381 92.3432 27.5295 91.7198 26.8845C90.4552 25.5732 89.7471 23.8122 89.7471 21.9785C89.7471 20.1447 90.4552 18.3837 91.7198 17.0725C92.6867 16.1148 93.9113 15.4681 95.2396 15.2137C96.568 14.9592 97.9409 15.1084 99.1859 15.6425C99.9685 15.9686 100.667 16.4729 101.226 17.1165L100.076 18.2825C99.6447 17.7562 99.0986 17.339 98.4808 17.064C97.8629 16.789 97.1903 16.6639 96.5163 16.6985C95.6656 16.7044 94.8293 16.9215 94.0804 17.3308C93.3316 17.74 92.693 18.329 92.2205 19.0461C91.7481 19.7633 91.4561 20.5869 91.3701 21.4448C91.2842 22.3028 91.4068 23.169 91.7274 23.9678C92.048 24.7666 92.5567 25.4737 93.2091 26.0272C93.8614 26.5807 94.6377 26.9638 95.4698 27.1431C96.302 27.3223 97.1648 27.2921 97.9829 27.0553C98.8009 26.8185 99.5493 26.3822 100.163 25.7845C100.826 25.0477 101.21 24.0969 101.248 23.1005H96.5163V21.5165H102.832C102.882 21.8517 102.911 22.1896 102.919 22.5285Z" fill="black" stroke="black" stroke-width="0.411304" stroke-miterlimit="10"/>
<path d="M112.86 17.0277H107V21.2077H112.339V22.7917H107V26.9717H112.86V28.5997H105.307V15.3997H112.86V17.0277Z" fill="black" stroke="black" stroke-width="0.411304" stroke-miterlimit="10"/>
<path d="M119.978 28.5997H118.307V17.0277H114.661V15.3997H123.711V17.0277H119.978V28.5997Z" fill="black" stroke="black" stroke-width="0.411304" stroke-miterlimit="10"/>
<path d="M130.092 28.5997V15.3997H131.763V28.5997H130.092Z" fill="black" stroke="black" stroke-width="0.411304" stroke-miterlimit="10"/>
<path d="M139.186 28.5997H137.514V17.0277H133.868V15.3997H142.81V17.0277H139.186V28.5997Z" fill="black" stroke="black" stroke-width="0.411304" stroke-miterlimit="10"/>
<path d="M159.761 26.8843C159.134 27.5202 158.39 28.0247 157.571 28.3689C156.751 28.7131 155.873 28.8902 154.986 28.8902C154.099 28.8902 153.221 28.7131 152.402 28.3689C151.583 28.0247 150.838 27.5202 150.211 26.8843C148.984 25.5622 148.301 23.8154 148.301 22.0003C148.301 20.1851 148.984 18.4384 150.211 17.1163C150.825 16.4624 151.567 15.9464 152.389 15.6015C153.212 15.2567 154.096 15.0907 154.986 15.1143C155.875 15.1 156.757 15.2703 157.578 15.6146C158.399 15.9589 159.142 16.4699 159.761 17.1163C160.385 17.7597 160.876 18.5235 161.204 19.3623C161.532 20.2012 161.691 21.0981 161.671 22.0003C161.699 22.9035 161.545 23.8031 161.216 24.6432C160.888 25.4833 160.392 26.2461 159.761 26.8843ZM151.448 25.7843C151.911 26.2592 152.462 26.6363 153.069 26.8937C153.676 27.1511 154.328 27.2836 154.986 27.2836C155.644 27.2836 156.296 27.1511 156.903 26.8937C157.511 26.6363 158.062 26.2592 158.524 25.7843C159.46 24.7527 159.98 23.4021 159.98 22.0003C159.98 20.5984 159.46 19.2478 158.524 18.2163C158.062 17.7413 157.511 17.3642 156.903 17.1068C156.296 16.8495 155.644 16.7169 154.986 16.7169C154.328 16.7169 153.676 16.8495 153.069 17.1068C152.462 17.3642 151.911 17.7413 151.448 18.2163C150.512 19.2478 149.992 20.5984 149.992 22.0003C149.992 23.4021 150.512 24.7527 151.448 25.7843Z" fill="black" stroke="black" stroke-width="0.411304" stroke-miterlimit="10"/>
<path d="M164.037 28.5997V15.3997H166.055L172.393 25.6737V23.1217V15.3997H174.064V28.5997H172.327L165.708 17.8417V20.3717V28.5997H164.037Z" fill="black" stroke="black" stroke-width="0.411304" stroke-miterlimit="10"/>
<path d="M147.889 47.8503C146.06 47.8546 144.274 48.4085 142.756 49.442C141.238 50.4754 140.056 51.9419 139.361 53.6561C138.665 55.3702 138.486 57.2551 138.847 59.0722C139.208 60.8893 140.092 62.5572 141.388 63.8648C142.684 65.1724 144.334 66.0611 146.128 66.4184C147.923 66.7758 149.781 66.5858 151.469 65.8724C153.157 65.159 154.598 63.9544 155.61 62.4108C156.623 60.8671 157.161 59.0539 157.157 57.2003C157.174 55.9637 156.946 54.7362 156.486 53.5908C156.026 52.4454 155.344 51.4056 154.479 50.5332C153.614 49.6608 152.585 48.9737 151.453 48.5127C150.321 48.0518 149.109 47.8265 147.889 47.8503ZM147.889 62.8763C146.768 62.9557 145.65 62.6916 144.679 62.1181C143.708 61.5447 142.93 60.6885 142.446 59.6608C141.962 58.6332 141.793 57.4816 141.963 56.3558C142.133 55.23 142.633 54.182 143.399 53.3482C144.164 52.5143 145.159 51.933 146.254 51.68C147.35 51.4269 148.495 51.5138 149.541 51.9293C150.587 52.3447 151.486 53.0696 152.12 54.0096C152.755 54.9497 153.095 56.0614 153.098 57.2003C153.133 57.9219 153.025 58.6433 152.781 59.322C152.536 60.0007 152.16 60.6229 151.675 61.1519C151.189 61.6809 150.604 62.106 149.954 62.4021C149.304 62.6983 148.602 62.8595 147.889 62.8763ZM127.661 47.8503C125.833 47.8546 124.046 48.4085 122.528 49.442C121.01 50.4754 119.828 51.9419 119.133 53.6561C118.437 55.3702 118.258 57.2551 118.619 59.0722C118.98 60.8893 119.864 62.5572 121.161 63.8648C122.457 65.1724 124.106 66.0611 125.9 66.4184C127.695 66.7758 129.553 66.5858 131.241 65.8724C132.929 65.159 134.37 63.9544 135.383 62.4108C136.395 60.8671 136.933 59.0539 136.929 57.2003C136.946 55.9637 136.718 54.7362 136.258 53.5908C135.798 52.4454 135.116 51.4056 134.251 50.5332C133.386 49.6608 132.357 48.9737 131.225 48.5127C130.093 48.0518 128.881 47.8265 127.661 47.8503ZM127.661 62.8763C126.54 62.9557 125.422 62.6916 124.451 62.1181C123.48 61.5447 122.702 60.6885 122.218 59.6608C121.734 58.6332 121.566 57.4816 121.735 56.3558C121.905 55.23 122.405 54.182 123.171 53.3482C123.936 52.5143 124.931 51.933 126.026 51.68C127.122 51.4269 128.267 51.5138 129.313 51.9293C130.359 52.3447 131.258 53.0696 131.892 54.0096C132.527 54.9497 132.867 56.0614 132.87 57.2003C132.905 57.9219 132.797 58.6433 132.553 59.322C132.308 60.0007 131.932 60.6229 131.447 61.1519C130.961 61.6809 130.376 62.106 129.726 62.4021C129.076 62.6983 128.374 62.8595 127.661 62.8763ZM103.614 50.7323V54.6923H112.99C112.843 56.5574 112.078 58.3174 110.819 59.6863C109.879 60.6576 108.747 61.418 107.499 61.9182C106.25 62.4185 104.912 62.6474 103.57 62.5903C100.807 62.5903 98.1573 61.4777 96.2036 59.4973C94.2499 57.5169 93.1523 54.831 93.1523 52.0303C93.1523 49.2296 94.2499 46.5436 96.2036 44.5632C98.1573 42.5828 100.807 41.4703 103.57 41.4703C106.219 41.4303 108.777 42.45 110.689 44.3083L113.445 41.5143C112.152 40.2174 110.616 39.1952 108.928 38.5077C107.239 37.8201 105.433 37.4811 103.614 37.5103C101.684 37.4342 99.7593 37.7536 97.9545 38.4496C96.1498 39.1456 94.5022 40.2037 93.1106 41.5605C91.7189 42.9173 90.6118 44.545 89.8555 46.3459C89.0993 48.1468 88.7095 50.084 88.7095 52.0413C88.7095 53.9986 89.0993 55.9357 89.8555 57.7366C90.6118 59.5376 91.7189 61.1652 93.1106 62.5221C94.5022 63.8789 96.1498 64.937 97.9545 65.6329C99.7593 66.3289 101.684 66.6484 103.614 66.5723C105.47 66.6474 107.321 66.3237 109.046 65.6222C110.77 64.9208 112.329 63.8575 113.619 62.5023C115.898 59.9644 117.112 56.6265 117.005 53.1963C117.012 52.3707 116.947 51.546 116.809 50.7323H103.614ZM201.953 53.8123C201.387 52.1243 200.329 50.6504 198.918 49.5857C197.507 48.5211 195.81 47.9159 194.053 47.8503C192.866 47.8479 191.691 48.0924 190.6 48.5686C189.51 49.0449 188.528 49.7427 187.714 50.619C186.9 51.4954 186.273 52.5315 185.87 53.6635C185.467 54.7955 185.297 55.9992 185.371 57.2003C185.353 59.2085 185.976 61.169 187.147 62.7889C188.318 64.4087 189.975 65.601 191.87 66.1876C193.765 66.7742 195.796 66.7237 197.66 66.0436C199.525 65.3635 201.122 64.0904 202.213 62.4143L199.066 60.2143C198.597 61.0069 197.932 61.6614 197.136 62.1129C196.34 62.5644 195.442 62.7973 194.53 62.7883C193.59 62.8276 192.659 62.5776 191.861 62.0711C191.063 61.5646 190.435 60.8253 190.059 59.9503L202.409 54.7803L201.953 53.8123ZM189.365 56.9363C189.321 56.2529 189.412 55.5675 189.632 54.9202C189.853 54.2729 190.199 53.6768 190.65 53.1666C191.1 52.6565 191.647 52.2426 192.257 51.9493C192.868 51.6559 193.53 51.489 194.205 51.4583C194.904 51.415 195.6 51.5819 196.207 51.938C196.813 52.2941 197.302 52.8237 197.612 53.4603L189.365 56.9363ZM179.338 66.0003H183.396V38.5003H179.338V66.0003ZM172.696 49.9403H172.544C171.938 49.2404 171.19 48.6814 170.351 48.3017C169.512 47.922 168.602 47.7305 167.683 47.7403C165.311 47.8569 163.074 48.894 161.436 50.6368C159.799 52.3795 158.885 54.6943 158.885 57.1013C158.885 59.5083 159.799 61.823 161.436 63.5658C163.074 65.3085 165.311 66.3457 167.683 66.4623C168.603 66.481 169.516 66.2935 170.356 65.9132C171.197 65.5329 171.944 64.9692 172.544 64.2623H172.696V65.6043C172.696 69.1903 170.808 71.1043 167.77 71.1043C166.755 71.0817 165.769 70.7538 164.938 70.1623C164.107 69.5709 163.469 68.7424 163.103 67.7823L159.587 69.2563C160.237 70.9112 161.368 72.3272 162.829 73.3171C164.29 74.307 166.013 74.8242 167.77 74.8003C172.523 74.8003 176.451 71.9623 176.451 65.0543V48.4003H172.696V49.9403ZM168.03 62.8763C166.608 62.7864 165.273 62.1504 164.298 61.0979C163.322 60.0454 162.779 58.6555 162.779 57.2113C162.779 55.767 163.322 54.3771 164.298 53.3246C165.273 52.2721 166.608 51.6361 168.03 51.5463C168.725 51.5767 169.407 51.7485 170.035 52.0515C170.663 52.3545 171.225 52.7824 171.687 53.31C172.148 53.8375 172.501 54.4537 172.723 55.1221C172.945 55.7904 173.032 56.4971 172.979 57.2003C173.038 57.9058 172.955 58.6162 172.736 59.2884C172.516 59.9607 172.165 60.5808 171.702 61.1114C171.24 61.642 170.676 62.0719 170.045 62.3753C169.413 62.6786 168.728 62.8491 168.03 62.8763ZM220.965 38.5003H211.242V66.0003H215.301V55.5723H220.965C222.122 55.6565 223.284 55.4983 224.377 55.1075C225.471 54.7167 226.474 54.1016 227.322 53.3008C228.171 52.4999 228.848 51.5303 229.311 50.4525C229.774 49.3747 230.013 48.2118 230.013 47.0363C230.013 45.8607 229.774 44.6978 229.311 43.62C228.848 42.5422 228.171 41.5727 227.322 40.7718C226.474 39.9709 225.471 39.3559 224.377 38.9651C223.284 38.5743 222.122 38.416 220.965 38.5003ZM220.965 51.7003H215.301V42.3283H221.052C221.662 42.3283 222.266 42.45 222.83 42.6866C223.393 42.9232 223.905 43.27 224.336 43.7072C224.768 44.1444 225.11 44.6634 225.343 45.2346C225.577 45.8058 225.697 46.418 225.697 47.0363C225.697 47.6545 225.577 48.2667 225.343 48.8379C225.11 49.4091 224.768 49.9281 224.336 50.3653C223.905 50.8025 223.393 51.1493 222.83 51.3859C222.266 51.6225 221.662 51.7443 221.052 51.7443L220.965 51.7003ZM246.012 47.7623C244.534 47.6699 243.061 48.0187 241.777 48.7655C240.492 49.5123 239.452 50.6244 238.784 51.9643L242.365 53.4823C242.727 52.821 243.27 52.28 243.929 51.9247C244.587 51.5695 245.333 51.4151 246.077 51.4803C246.592 51.4193 247.114 51.4629 247.612 51.6086C248.111 51.7543 248.576 51.9991 248.98 52.3288C249.384 52.6585 249.719 53.0665 249.966 53.529C250.213 53.9914 250.366 54.499 250.417 55.0223V55.2863C249.112 54.5909 247.66 54.2284 246.185 54.2303C242.322 54.2303 238.372 56.4303 238.372 60.4343C238.41 61.2853 238.617 62.1199 238.979 62.8885C239.342 63.657 239.853 64.3439 240.483 64.9082C241.112 65.4726 241.847 65.9029 242.644 66.1736C243.441 66.4444 244.284 66.55 245.122 66.4843C246.14 66.5414 247.155 66.3229 248.063 65.8513C248.971 65.3796 249.738 64.6718 250.287 63.8003H250.417V66.0003H254.324V55.4183C254.324 50.6003 250.721 47.8063 246.098 47.8063L246.012 47.7623ZM245.512 62.8323C244.188 62.8323 242.344 62.1503 242.344 60.5003C242.344 58.3003 244.644 57.5523 246.684 57.5523C247.974 57.52 249.248 57.8391 250.374 58.4763C250.238 59.671 249.679 60.7752 248.801 61.5842C247.923 62.3933 246.785 62.8523 245.599 62.8763L245.512 62.8323ZM268.562 48.4003L263.917 60.3243H263.787L258.969 48.4003H254.628L261.855 65.0763L257.732 74.3383H261.964L273.076 48.4003H268.562ZM232.099 66.0003H236.136V38.5003H232.099V66.0003Z" fill="black"/>
<path d="M22.6588 16.5882C21.9436 17.4454 21.5787 18.5472 21.6387 19.6682V68.3322C21.5649 69.455 21.9315 70.562 22.6588 71.4122L22.8107 71.5882L49.7016 44.3302V43.6702L22.8107 16.4342L22.6588 16.5882Z" fill="url(#paint0_linear_83_328)"/>
<path d="M58.5997 53.4157L49.7012 44.3297V43.6697L58.5997 34.5837L58.795 34.7157L69.4515 40.8317C72.4901 42.5697 72.4901 45.4297 69.4515 47.1897L58.8384 53.3057L58.5997 53.4157Z" fill="url(#paint1_linear_83_328)"/>
<path d="M58.8605 53.284L49.7015 44L22.6587 71.412C23.272 71.9654 24.057 72.2837 24.8776 72.3118C25.6982 72.34 26.5026 72.0761 27.1514 71.566L58.8605 53.284Z" fill="url(#paint2_linear_83_328)"/>
<path d="M58.8605 34.7161L27.1514 16.4561C26.5068 15.9389 25.703 15.6686 24.8813 15.6928C24.0596 15.7169 23.2726 16.0339 22.6587 16.5881L49.7015 44.0001L58.8605 34.7161Z" fill="url(#paint3_linear_83_328)"/>
<path opacity="0.2" d="M58.6 53.0859L27.1514 71.2359C26.5262 71.7142 25.7642 71.973 24.981 71.973C24.1977 71.973 23.4358 71.7142 22.8106 71.2359L22.6587 71.3899L22.8106 71.5659C23.4358 72.0442 24.1977 72.303 24.981 72.303C25.7642 72.303 26.5262 72.0442 27.1514 71.5659L58.8605 53.2839L58.6 53.0859Z" fill="black"/>
<path opacity="0.12" d="M22.6588 71.1037C21.9617 70.2311 21.62 69.1213 21.7039 68.0017V68.3317C21.63 69.4545 21.9966 70.5615 22.7239 71.4117L22.8759 71.2577L22.6588 71.1037Z" fill="black"/>
<path opacity="0.12" d="M69.452 46.86L58.6001 53.086L58.7954 53.284L69.452 47.168C70.081 46.8984 70.6267 46.4618 71.0315 45.9043C71.4364 45.3468 71.6855 44.6889 71.7525 44C71.6169 44.626 71.338 45.211 70.9384 45.7078C70.5388 46.2046 70.0296 46.5992 69.452 46.86Z" fill="black"/>
<path opacity="0.25" d="M27.1514 16.7642L69.4519 41.1402C70.0296 41.401 70.5387 41.7957 70.9383 42.2924C71.338 42.7892 71.6168 43.3742 71.7525 44.0002C71.6855 43.3113 71.4364 42.6534 71.0315 42.0959C70.6267 41.5384 70.081 41.1019 69.4519 40.8322L27.1514 16.4562C24.1346 14.6962 21.6387 16.1482 21.6387 19.6682V19.9982C21.7038 16.4782 24.1346 15.0262 27.1514 16.7642Z" fill="white"/>
</g>
<defs>
<linearGradient id="paint0_linear_83_328" x1="47.3142" y1="19.1622" x2="10.4016" y2="55.5777" gradientUnits="userSpaceOnUse">
<stop stop-color="#00A0FF"/>
<stop offset="0.01" stop-color="#00A1FF"/>
<stop offset="0.26" stop-color="#00BEFF"/>
<stop offset="0.51" stop-color="#00D2FF"/>
<stop offset="0.76" stop-color="#00DFFF"/>
<stop offset="1" stop-color="#00E3FF"/>
</linearGradient>
<linearGradient id="paint1_linear_83_328" x1="73.4233" y1="43.9997" x2="20.9221" y2="43.9997" gradientUnits="userSpaceOnUse">
<stop stop-color="#FFE000"/>
<stop offset="0.41" stop-color="#FFBD00"/>
<stop offset="0.78" stop-color="#FFA500"/>
<stop offset="1" stop-color="#FF9C00"/>
</linearGradient>
<linearGradient id="paint2_linear_83_328" x1="53.8903" y1="49.06" x2="3.82321" y2="98.4311" gradientUnits="userSpaceOnUse">
<stop stop-color="#FF3A44"/>
<stop offset="1" stop-color="#C31162"/>
</linearGradient>
<linearGradient id="paint3_linear_83_328" x1="15.8437" y1="0.396106" x2="38.1937" y2="22.445" gradientUnits="userSpaceOnUse">
<stop stop-color="#32A071"/>
<stop offset="0.07" stop-color="#2DA771"/>
<stop offset="0.48" stop-color="#15CF74"/>
<stop offset="0.8" stop-color="#06E775"/>
<stop offset="1" stop-color="#00F076"/>
</linearGradient>
<clipPath id="clip0_83_328">
<rect width="293" height="88" fill="white"/>
</clipPath>
</defs>
</svg>
