<svg width="199" height="42" viewBox="0 0 199 42" fill="none" xmlns="http://www.w3.org/2000/svg">
<g clip-path="url(#clip0_83_636)">
<path d="M129.569 18.8002C129.569 20.5002 130.969 21.8002 132.569 21.8002H144.269V16.7002H134.869V4.2002H129.569V18.8002Z" fill="#3E3A37"/>
<path d="M150.27 4.2002C148.57 4.2002 147.27 5.6002 147.27 7.2002V21.8002H152.57V9.3002H160.17V4.2002C160.27 4.2002 150.27 4.2002 150.27 4.2002Z" fill="#3E3A37"/>
<path d="M178.07 24.3998C179.77 24.3998 181.07 25.7998 181.07 27.3998V36.5998H175.77V29.3998H168.27V24.2998H178.07V24.3998Z" fill="#3E3A37"/>
<path d="M186.77 41.9998C185.07 41.9998 183.77 40.5998 183.77 38.9998V29.7998H189.07V36.9998H198.47V41.9998H186.77Z" fill="#3E3A37"/>
<path d="M193.67 21.8002C195.37 21.8002 196.67 20.4002 196.67 18.8002V4.2002H191.37V16.7002H183.77V21.8002H193.67Z" fill="#3E3A37"/>
<path d="M143.969 24.3999V38.9999C143.969 40.6999 145.369 41.9999 146.969 41.9999H160.169V24.3999H143.969ZM154.869 36.8999H149.269V29.3999H154.869V36.8999Z" fill="#3E3A37"/>
<path d="M65.7692 4.2002H60.4692V18.8002C60.4692 20.5002 61.8692 21.8002 63.4692 21.8002H75.1692V16.7002H65.7692V4.2002Z" fill="#3E3A37"/>
<path d="M89.9692 18.8002C89.9692 20.5002 91.3692 21.8002 92.9692 21.8002H104.669V16.7002H95.2692V9.3002H104.669V4.2002H89.9692V18.8002Z" fill="#3E3A37"/>
<path d="M0.169434 9.3002H2.36943V16.8002H0.169434V21.9002H18.5694V16.8002H16.3694V9.3002H18.5694V4.2002H0.169434V9.3002ZM7.66943 9.3002H11.0694V16.8002H7.66943V9.3002Z" fill="#3E3A37"/>
<path d="M26.8693 4.2002H21.5693V21.8002H26.8693V4.2002Z" fill="#3E3A37"/>
<path d="M83.4693 4.2002H78.0693V21.8002H83.4693V15.5002H86.6693V10.5002H83.4693V4.2002Z" fill="#3E3A37"/>
<path d="M116.269 10.5002H113.069V4.2002H107.669V21.8002H113.069V15.5002H116.269V10.5002Z" fill="#3E3A37"/>
<path d="M50.5693 10.5H47.7693C46.9693 7.6 44.6693 5.3 41.7693 4.4V1.5H36.4693V4.4C32.7693 5.5 30.0693 9 30.0693 13C30.0693 18 34.0693 22 39.0693 22C43.1693 22 46.6693 19.3 47.7693 15.5H50.5693V21.8H55.8693V4.2H50.5693V10.5ZM39.1693 16.7C37.0693 16.7 35.4693 15 35.4693 13C35.4693 11 37.1693 9.3 39.1693 9.3C41.1693 9.3 42.8693 11 42.8693 13C42.8693 15 41.1693 16.7 39.1693 16.7Z" fill="#3E3A37"/>
<g clip-path="url(#clip1_83_636)">
<path d="M184.929 8.2C184.129 5.7 181.629 4.1 179.029 4.5C178.529 1.9 176.329 0 173.629 0C170.929 0 168.729 1.9 168.329 4.4C165.729 4.1 163.229 5.6 162.429 8.2C161.629 10.8 162.729 13.4 165.029 14.7C163.929 17 164.629 19.9 166.729 21.5C168.929 23.1 171.829 22.8 173.729 21.1C175.629 22.9 178.529 23.1 180.729 21.5C182.929 19.9 183.529 17.1 182.429 14.7C184.629 13.4 185.729 10.7 184.929 8.2Z" fill="#E73736"/>
<mask id="mask0_83_636" style="mask-type:luminance" maskUnits="userSpaceOnUse" x="168" y="6" width="11" height="11">
<path d="M168.829 11.7999C168.829 14.4999 171.029 16.5999 173.629 16.5999C176.329 16.5999 178.429 14.3999 178.429 11.7999C178.429 9.19986 176.229 6.99986 173.629 6.99986C171.029 6.89986 168.829 9.09986 168.829 11.7999Z" fill="white"/>
</mask>
<g mask="url(#mask0_83_636)">
<path d="M178.529 6.8999H168.829V16.5999H178.529V6.8999Z" fill="url(#paint0_radial_83_636)"/>
</g>
</g>
</g>
<defs>
<radialGradient id="paint0_radial_83_636" cx="0" cy="0" r="1" gradientUnits="userSpaceOnUse" gradientTransform="translate(173.659 11.7544) scale(4.83401)">
<stop stop-color="#5C000E"/>
<stop offset="0.55" stop-color="#5C000E"/>
<stop offset="0.9" stop-color="#E73736"/>
<stop offset="1" stop-color="#E73736"/>
</radialGradient>
<clipPath id="clip0_83_636">
<rect width="198.2" height="42" fill="white" transform="translate(0.169434)"/>
</clipPath>
<clipPath id="clip1_83_636">
<rect width="23.1" height="22.5" fill="white" transform="translate(162.169)"/>
</clipPath>
</defs>
</svg>
